<?xml version="1.0" encoding="utf-8"?>
<svg xmlns="http://www.w3.org/2000/svg" xmlns:xlink="http://www.w3.org/1999/xlink" width="600" height="400" viewBox="0 0 2400 1600">
<defs>
  <clipPath id="clip210">
    <rect x="0" y="0" width="2400" height="1600"/>
  </clipPath>
</defs>
<path clip-path="url(#clip210)" d="
M0 1600 L2400 1600 L2400 0 L0 0  Z
  " fill="#ffffff" fill-rule="evenodd" fill-opacity="1"/>
<defs>
  <clipPath id="clip211">
    <rect x="480" y="0" width="1681" height="1600"/>
  </clipPath>
</defs>
<path clip-path="url(#clip210)" d="
M186.274 1486.45 L2352.76 1486.45 L2352.76 47.2441 L186.274 47.2441  Z
  " fill="#ffffff" fill-rule="evenodd" fill-opacity="1"/>
<defs>
  <clipPath id="clip212">
    <rect x="186" y="47" width="2167" height="1440"/>
  </clipPath>
</defs>
<polyline clip-path="url(#clip212)" style="stroke:#000000; stroke-linecap:round; stroke-linejoin:round; stroke-width:2; stroke-opacity:0.1; fill:none" points="
  245.713,1486.45 245.713,47.2441 
  "/>
<polyline clip-path="url(#clip212)" style="stroke:#000000; stroke-linecap:round; stroke-linejoin:round; stroke-width:2; stroke-opacity:0.1; fill:none" points="
  714.916,1486.45 714.916,47.2441 
  "/>
<polyline clip-path="url(#clip212)" style="stroke:#000000; stroke-linecap:round; stroke-linejoin:round; stroke-width:2; stroke-opacity:0.1; fill:none" points="
  1184.12,1486.45 1184.12,47.2441 
  "/>
<polyline clip-path="url(#clip212)" style="stroke:#000000; stroke-linecap:round; stroke-linejoin:round; stroke-width:2; stroke-opacity:0.1; fill:none" points="
  1653.32,1486.45 1653.32,47.2441 
  "/>
<polyline clip-path="url(#clip212)" style="stroke:#000000; stroke-linecap:round; stroke-linejoin:round; stroke-width:2; stroke-opacity:0.1; fill:none" points="
  2122.53,1486.45 2122.53,47.2441 
  "/>
<polyline clip-path="url(#clip210)" style="stroke:#000000; stroke-linecap:round; stroke-linejoin:round; stroke-width:4; stroke-opacity:1; fill:none" points="
  186.274,1486.45 2352.76,1486.45 
  "/>
<polyline clip-path="url(#clip210)" style="stroke:#000000; stroke-linecap:round; stroke-linejoin:round; stroke-width:4; stroke-opacity:1; fill:none" points="
  245.713,1486.45 245.713,1467.55 
  "/>
<polyline clip-path="url(#clip210)" style="stroke:#000000; stroke-linecap:round; stroke-linejoin:round; stroke-width:4; stroke-opacity:1; fill:none" points="
  714.916,1486.45 714.916,1467.55 
  "/>
<polyline clip-path="url(#clip210)" style="stroke:#000000; stroke-linecap:round; stroke-linejoin:round; stroke-width:4; stroke-opacity:1; fill:none" points="
  1184.12,1486.45 1184.12,1467.55 
  "/>
<polyline clip-path="url(#clip210)" style="stroke:#000000; stroke-linecap:round; stroke-linejoin:round; stroke-width:4; stroke-opacity:1; fill:none" points="
  1653.32,1486.45 1653.32,1467.55 
  "/>
<polyline clip-path="url(#clip210)" style="stroke:#000000; stroke-linecap:round; stroke-linejoin:round; stroke-width:4; stroke-opacity:1; fill:none" points="
  2122.53,1486.45 2122.53,1467.55 
  "/>
<path clip-path="url(#clip210)" d="M245.713 1517.37 Q242.102 1517.37 240.273 1520.93 Q238.467 1524.47 238.467 1531.6 Q238.467 1538.71 240.273 1542.27 Q242.102 1545.82 245.713 1545.82 Q249.347 1545.82 251.152 1542.27 Q252.981 1538.71 252.981 1531.6 Q252.981 1524.47 251.152 1520.93 Q249.347 1517.37 245.713 1517.37 M245.713 1513.66 Q251.523 1513.66 254.578 1518.27 Q257.657 1522.85 257.657 1531.6 Q257.657 1540.33 254.578 1544.94 Q251.523 1549.52 245.713 1549.52 Q239.903 1549.52 236.824 1544.94 Q233.768 1540.33 233.768 1531.6 Q233.768 1522.85 236.824 1518.27 Q239.903 1513.66 245.713 1513.66 Z" fill="#000000" fill-rule="evenodd" fill-opacity="1" /><path clip-path="url(#clip210)" d="M678.609 1544.91 L694.928 1544.91 L694.928 1548.85 L672.984 1548.85 L672.984 1544.91 Q675.646 1542.16 680.229 1537.53 Q684.835 1532.88 686.016 1531.53 Q688.261 1529.01 689.141 1527.27 Q690.044 1525.51 690.044 1523.82 Q690.044 1521.07 688.099 1519.33 Q686.178 1517.6 683.076 1517.6 Q680.877 1517.6 678.423 1518.36 Q675.993 1519.13 673.215 1520.68 L673.215 1515.95 Q676.039 1514.82 678.493 1514.24 Q680.947 1513.66 682.984 1513.66 Q688.354 1513.66 691.548 1516.35 Q694.743 1519.03 694.743 1523.52 Q694.743 1525.65 693.933 1527.57 Q693.146 1529.47 691.039 1532.07 Q690.46 1532.74 687.359 1535.95 Q684.257 1539.15 678.609 1544.91 Z" fill="#000000" fill-rule="evenodd" fill-opacity="1" /><path clip-path="url(#clip210)" d="M704.789 1514.29 L723.145 1514.29 L723.145 1518.22 L709.071 1518.22 L709.071 1526.7 Q710.09 1526.35 711.108 1526.19 Q712.127 1526 713.145 1526 Q718.932 1526 722.312 1529.17 Q725.692 1532.34 725.692 1537.76 Q725.692 1543.34 722.22 1546.44 Q718.747 1549.52 712.428 1549.52 Q710.252 1549.52 707.983 1549.15 Q705.738 1548.78 703.331 1548.04 L703.331 1543.34 Q705.414 1544.47 707.636 1545.03 Q709.858 1545.58 712.335 1545.58 Q716.34 1545.58 718.678 1543.48 Q721.016 1541.37 721.016 1537.76 Q721.016 1534.15 718.678 1532.04 Q716.34 1529.94 712.335 1529.94 Q710.46 1529.94 708.585 1530.35 Q706.733 1530.77 704.789 1531.65 L704.789 1514.29 Z" fill="#000000" fill-rule="evenodd" fill-opacity="1" /><path clip-path="url(#clip210)" d="M744.905 1517.37 Q741.293 1517.37 739.465 1520.93 Q737.659 1524.47 737.659 1531.6 Q737.659 1538.71 739.465 1542.27 Q741.293 1545.82 744.905 1545.82 Q748.539 1545.82 750.344 1542.27 Q752.173 1538.71 752.173 1531.6 Q752.173 1524.47 750.344 1520.93 Q748.539 1517.37 744.905 1517.37 M744.905 1513.66 Q750.715 1513.66 753.77 1518.27 Q756.849 1522.85 756.849 1531.6 Q756.849 1540.33 753.77 1544.94 Q750.715 1549.52 744.905 1549.52 Q739.094 1549.52 736.016 1544.94 Q732.96 1540.33 732.96 1531.6 Q732.96 1522.85 736.016 1518.27 Q739.094 1513.66 744.905 1513.66 Z" fill="#000000" fill-rule="evenodd" fill-opacity="1" /><path clip-path="url(#clip210)" d="M1143.74 1514.29 L1162.09 1514.29 L1162.09 1518.22 L1148.02 1518.22 L1148.02 1526.7 Q1149.04 1526.35 1150.06 1526.19 Q1151.08 1526 1152.09 1526 Q1157.88 1526 1161.26 1529.17 Q1164.64 1532.34 1164.64 1537.76 Q1164.64 1543.34 1161.17 1546.44 Q1157.7 1549.52 1151.38 1549.52 Q1149.2 1549.52 1146.93 1549.15 Q1144.69 1548.78 1142.28 1548.04 L1142.28 1543.34 Q1144.36 1544.47 1146.59 1545.03 Q1148.81 1545.58 1151.28 1545.58 Q1155.29 1545.58 1157.63 1543.48 Q1159.96 1541.37 1159.96 1537.76 Q1159.96 1534.15 1157.63 1532.04 Q1155.29 1529.94 1151.28 1529.94 Q1149.41 1529.94 1147.53 1530.35 Q1145.68 1530.77 1143.74 1531.65 L1143.74 1514.29 Z" fill="#000000" fill-rule="evenodd" fill-opacity="1" /><path clip-path="url(#clip210)" d="M1183.85 1517.37 Q1180.24 1517.37 1178.41 1520.93 Q1176.61 1524.47 1176.61 1531.6 Q1176.61 1538.71 1178.41 1542.27 Q1180.24 1545.82 1183.85 1545.82 Q1187.49 1545.82 1189.29 1542.27 Q1191.12 1538.71 1191.12 1531.6 Q1191.12 1524.47 1189.29 1520.93 Q1187.49 1517.37 1183.85 1517.37 M1183.85 1513.66 Q1189.66 1513.66 1192.72 1518.27 Q1195.8 1522.85 1195.8 1531.6 Q1195.8 1540.33 1192.72 1544.94 Q1189.66 1549.52 1183.85 1549.52 Q1178.04 1549.52 1174.96 1544.94 Q1171.91 1540.33 1171.91 1531.6 Q1171.91 1522.85 1174.96 1518.27 Q1178.04 1513.66 1183.85 1513.66 Z" fill="#000000" fill-rule="evenodd" fill-opacity="1" /><path clip-path="url(#clip210)" d="M1214.02 1517.37 Q1210.4 1517.37 1208.58 1520.93 Q1206.77 1524.47 1206.77 1531.6 Q1206.77 1538.71 1208.58 1542.27 Q1210.4 1545.82 1214.02 1545.82 Q1217.65 1545.82 1219.46 1542.27 Q1221.28 1538.71 1221.28 1531.6 Q1221.28 1524.47 1219.46 1520.93 Q1217.65 1517.37 1214.02 1517.37 M1214.02 1513.66 Q1219.83 1513.66 1222.88 1518.27 Q1225.96 1522.85 1225.96 1531.6 Q1225.96 1540.33 1222.88 1544.94 Q1219.83 1549.52 1214.02 1549.52 Q1208.21 1549.52 1205.13 1544.94 Q1202.07 1540.33 1202.07 1531.6 Q1202.07 1522.85 1205.13 1518.27 Q1208.21 1513.66 1214.02 1513.66 Z" fill="#000000" fill-rule="evenodd" fill-opacity="1" /><path clip-path="url(#clip210)" d="M1611.6 1514.29 L1633.82 1514.29 L1633.82 1516.28 L1621.28 1548.85 L1616.39 1548.85 L1628.2 1518.22 L1611.6 1518.22 L1611.6 1514.29 Z" fill="#000000" fill-rule="evenodd" fill-opacity="1" /><path clip-path="url(#clip210)" d="M1642.99 1514.29 L1661.34 1514.29 L1661.34 1518.22 L1647.27 1518.22 L1647.27 1526.7 Q1648.29 1526.35 1649.31 1526.19 Q1650.33 1526 1651.34 1526 Q1657.13 1526 1660.51 1529.17 Q1663.89 1532.34 1663.89 1537.76 Q1663.89 1543.34 1660.42 1546.44 Q1656.95 1549.52 1650.63 1549.52 Q1648.45 1549.52 1646.18 1549.15 Q1643.94 1548.78 1641.53 1548.04 L1641.53 1543.34 Q1643.61 1544.47 1645.84 1545.03 Q1648.06 1545.58 1650.53 1545.58 Q1654.54 1545.58 1656.88 1543.48 Q1659.21 1541.37 1659.21 1537.76 Q1659.21 1534.15 1656.88 1532.04 Q1654.54 1529.94 1650.53 1529.94 Q1648.66 1529.94 1646.78 1530.35 Q1644.93 1530.77 1642.99 1531.65 L1642.99 1514.29 Z" fill="#000000" fill-rule="evenodd" fill-opacity="1" /><path clip-path="url(#clip210)" d="M1683.1 1517.37 Q1679.49 1517.37 1677.66 1520.93 Q1675.86 1524.47 1675.86 1531.6 Q1675.86 1538.71 1677.66 1542.27 Q1679.49 1545.82 1683.1 1545.82 Q1686.74 1545.82 1688.54 1542.27 Q1690.37 1538.71 1690.37 1531.6 Q1690.37 1524.47 1688.54 1520.93 Q1686.74 1517.37 1683.1 1517.37 M1683.1 1513.66 Q1688.91 1513.66 1691.97 1518.27 Q1695.05 1522.85 1695.05 1531.6 Q1695.05 1540.33 1691.97 1544.94 Q1688.91 1549.52 1683.1 1549.52 Q1677.29 1549.52 1674.21 1544.94 Q1671.16 1540.33 1671.16 1531.6 Q1671.16 1522.85 1674.21 1518.27 Q1677.29 1513.66 1683.1 1513.66 Z" fill="#000000" fill-rule="evenodd" fill-opacity="1" /><path clip-path="url(#clip210)" d="M2067.05 1544.91 L2074.69 1544.91 L2074.69 1518.55 L2066.38 1520.21 L2066.38 1515.95 L2074.65 1514.29 L2079.32 1514.29 L2079.32 1544.91 L2086.96 1544.91 L2086.96 1548.85 L2067.05 1548.85 L2067.05 1544.91 Z" fill="#000000" fill-rule="evenodd" fill-opacity="1" /><path clip-path="url(#clip210)" d="M2106.4 1517.37 Q2102.79 1517.37 2100.96 1520.93 Q2099.16 1524.47 2099.16 1531.6 Q2099.16 1538.71 2100.96 1542.27 Q2102.79 1545.82 2106.4 1545.82 Q2110.04 1545.82 2111.84 1542.27 Q2113.67 1538.71 2113.67 1531.6 Q2113.67 1524.47 2111.84 1520.93 Q2110.04 1517.37 2106.4 1517.37 M2106.4 1513.66 Q2112.21 1513.66 2115.27 1518.27 Q2118.35 1522.85 2118.35 1531.6 Q2118.35 1540.33 2115.27 1544.94 Q2112.21 1549.52 2106.4 1549.52 Q2100.59 1549.52 2097.52 1544.94 Q2094.46 1540.33 2094.46 1531.6 Q2094.46 1522.85 2097.52 1518.27 Q2100.59 1513.66 2106.4 1513.66 Z" fill="#000000" fill-rule="evenodd" fill-opacity="1" /><path clip-path="url(#clip210)" d="M2136.57 1517.37 Q2132.96 1517.37 2131.13 1520.93 Q2129.32 1524.47 2129.32 1531.6 Q2129.32 1538.71 2131.13 1542.27 Q2132.96 1545.82 2136.57 1545.82 Q2140.2 1545.82 2142.01 1542.27 Q2143.83 1538.71 2143.83 1531.6 Q2143.83 1524.47 2142.01 1520.93 Q2140.2 1517.37 2136.57 1517.37 M2136.57 1513.66 Q2142.38 1513.66 2145.43 1518.27 Q2148.51 1522.85 2148.51 1531.6 Q2148.51 1540.33 2145.43 1544.94 Q2142.38 1549.52 2136.57 1549.52 Q2130.76 1549.52 2127.68 1544.94 Q2124.62 1540.33 2124.62 1531.6 Q2124.62 1522.85 2127.68 1518.27 Q2130.76 1513.66 2136.57 1513.66 Z" fill="#000000" fill-rule="evenodd" fill-opacity="1" /><path clip-path="url(#clip210)" d="M2166.73 1517.37 Q2163.12 1517.37 2161.29 1520.93 Q2159.48 1524.47 2159.48 1531.6 Q2159.48 1538.71 2161.29 1542.27 Q2163.12 1545.82 2166.73 1545.82 Q2170.36 1545.82 2172.17 1542.27 Q2174 1538.71 2174 1531.6 Q2174 1524.47 2172.17 1520.93 Q2170.36 1517.37 2166.73 1517.37 M2166.73 1513.66 Q2172.54 1513.66 2175.59 1518.27 Q2178.67 1522.85 2178.67 1531.6 Q2178.67 1540.33 2175.59 1544.94 Q2172.54 1549.52 2166.73 1549.52 Q2160.92 1549.52 2157.84 1544.94 Q2154.78 1540.33 2154.78 1531.6 Q2154.78 1522.85 2157.84 1518.27 Q2160.92 1513.66 2166.73 1513.66 Z" fill="#000000" fill-rule="evenodd" fill-opacity="1" /><polyline clip-path="url(#clip212)" style="stroke:#000000; stroke-linecap:round; stroke-linejoin:round; stroke-width:2; stroke-opacity:0.1; fill:none" points="
  186.274,1445.73 2352.76,1445.73 
  "/>
<polyline clip-path="url(#clip212)" style="stroke:#000000; stroke-linecap:round; stroke-linejoin:round; stroke-width:2; stroke-opacity:0.1; fill:none" points="
  186.274,1106.29 2352.76,1106.29 
  "/>
<polyline clip-path="url(#clip212)" style="stroke:#000000; stroke-linecap:round; stroke-linejoin:round; stroke-width:2; stroke-opacity:0.1; fill:none" points="
  186.274,766.846 2352.76,766.846 
  "/>
<polyline clip-path="url(#clip212)" style="stroke:#000000; stroke-linecap:round; stroke-linejoin:round; stroke-width:2; stroke-opacity:0.1; fill:none" points="
  186.274,427.402 2352.76,427.402 
  "/>
<polyline clip-path="url(#clip212)" style="stroke:#000000; stroke-linecap:round; stroke-linejoin:round; stroke-width:2; stroke-opacity:0.1; fill:none" points="
  186.274,87.9577 2352.76,87.9577 
  "/>
<polyline clip-path="url(#clip210)" style="stroke:#000000; stroke-linecap:round; stroke-linejoin:round; stroke-width:4; stroke-opacity:1; fill:none" points="
  186.274,1486.45 186.274,47.2441 
  "/>
<polyline clip-path="url(#clip210)" style="stroke:#000000; stroke-linecap:round; stroke-linejoin:round; stroke-width:4; stroke-opacity:1; fill:none" points="
  186.274,1445.73 205.172,1445.73 
  "/>
<polyline clip-path="url(#clip210)" style="stroke:#000000; stroke-linecap:round; stroke-linejoin:round; stroke-width:4; stroke-opacity:1; fill:none" points="
  186.274,1106.29 205.172,1106.29 
  "/>
<polyline clip-path="url(#clip210)" style="stroke:#000000; stroke-linecap:round; stroke-linejoin:round; stroke-width:4; stroke-opacity:1; fill:none" points="
  186.274,766.846 205.172,766.846 
  "/>
<polyline clip-path="url(#clip210)" style="stroke:#000000; stroke-linecap:round; stroke-linejoin:round; stroke-width:4; stroke-opacity:1; fill:none" points="
  186.274,427.402 205.172,427.402 
  "/>
<polyline clip-path="url(#clip210)" style="stroke:#000000; stroke-linecap:round; stroke-linejoin:round; stroke-width:4; stroke-opacity:1; fill:none" points="
  186.274,87.9577 205.172,87.9577 
  "/>
<path clip-path="url(#clip210)" d="M62.9365 1431.53 Q59.3254 1431.53 57.4967 1435.1 Q55.6912 1438.64 55.6912 1445.77 Q55.6912 1452.88 57.4967 1456.44 Q59.3254 1459.98 62.9365 1459.98 Q66.5707 1459.98 68.3763 1456.44 Q70.205 1452.88 70.205 1445.77 Q70.205 1438.64 68.3763 1435.1 Q66.5707 1431.53 62.9365 1431.53 M62.9365 1427.83 Q68.7467 1427.83 71.8022 1432.44 Q74.8809 1437.02 74.8809 1445.77 Q74.8809 1454.5 71.8022 1459.1 Q68.7467 1463.69 62.9365 1463.69 Q57.1264 1463.69 54.0477 1459.1 Q50.9921 1454.5 50.9921 1445.77 Q50.9921 1437.02 54.0477 1432.44 Q57.1264 1427.83 62.9365 1427.83 Z" fill="#000000" fill-rule="evenodd" fill-opacity="1" /><path clip-path="url(#clip210)" d="M83.0984 1457.13 L87.9827 1457.13 L87.9827 1463.01 L83.0984 1463.01 L83.0984 1457.13 Z" fill="#000000" fill-rule="evenodd" fill-opacity="1" /><path clip-path="url(#clip210)" d="M108.168 1431.53 Q104.557 1431.53 102.728 1435.1 Q100.922 1438.64 100.922 1445.77 Q100.922 1452.88 102.728 1456.44 Q104.557 1459.98 108.168 1459.98 Q111.802 1459.98 113.608 1456.44 Q115.436 1452.88 115.436 1445.77 Q115.436 1438.64 113.608 1435.1 Q111.802 1431.53 108.168 1431.53 M108.168 1427.83 Q113.978 1427.83 117.033 1432.44 Q120.112 1437.02 120.112 1445.77 Q120.112 1454.5 117.033 1459.1 Q113.978 1463.69 108.168 1463.69 Q102.358 1463.69 99.2789 1459.1 Q96.2234 1454.5 96.2234 1445.77 Q96.2234 1437.02 99.2789 1432.44 Q102.358 1427.83 108.168 1427.83 Z" fill="#000000" fill-rule="evenodd" fill-opacity="1" /><path clip-path="url(#clip210)" d="M138.33 1431.53 Q134.719 1431.53 132.89 1435.1 Q131.084 1438.64 131.084 1445.77 Q131.084 1452.88 132.89 1456.44 Q134.719 1459.98 138.33 1459.98 Q141.964 1459.98 143.769 1456.44 Q145.598 1452.88 145.598 1445.77 Q145.598 1438.64 143.769 1435.1 Q141.964 1431.53 138.33 1431.53 M138.33 1427.83 Q144.14 1427.83 147.195 1432.44 Q150.274 1437.02 150.274 1445.77 Q150.274 1454.5 147.195 1459.1 Q144.14 1463.69 138.33 1463.69 Q132.519 1463.69 129.441 1459.1 Q126.385 1454.5 126.385 1445.77 Q126.385 1437.02 129.441 1432.44 Q132.519 1427.83 138.33 1427.83 Z" fill="#000000" fill-rule="evenodd" fill-opacity="1" /><path clip-path="url(#clip210)" d="M63.9319 1092.09 Q60.3208 1092.09 58.4921 1095.65 Q56.6865 1099.2 56.6865 1106.32 Q56.6865 1113.43 58.4921 1117 Q60.3208 1120.54 63.9319 1120.54 Q67.5661 1120.54 69.3717 1117 Q71.2004 1113.43 71.2004 1106.32 Q71.2004 1099.2 69.3717 1095.65 Q67.5661 1092.09 63.9319 1092.09 M63.9319 1088.39 Q69.742 1088.39 72.7976 1092.99 Q75.8763 1097.57 75.8763 1106.32 Q75.8763 1115.05 72.7976 1119.66 Q69.742 1124.24 63.9319 1124.24 Q58.1217 1124.24 55.043 1119.66 Q51.9875 1115.05 51.9875 1106.32 Q51.9875 1097.57 55.043 1092.99 Q58.1217 1088.39 63.9319 1088.39 Z" fill="#000000" fill-rule="evenodd" fill-opacity="1" /><path clip-path="url(#clip210)" d="M84.0938 1117.69 L88.978 1117.69 L88.978 1123.57 L84.0938 1123.57 L84.0938 1117.69 Z" fill="#000000" fill-rule="evenodd" fill-opacity="1" /><path clip-path="url(#clip210)" d="M103.191 1119.63 L119.51 1119.63 L119.51 1123.57 L97.566 1123.57 L97.566 1119.63 Q100.228 1116.88 104.811 1112.25 Q109.418 1107.6 110.598 1106.26 Q112.844 1103.73 113.723 1102 Q114.626 1100.24 114.626 1098.55 Q114.626 1095.79 112.682 1094.06 Q110.76 1092.32 107.658 1092.32 Q105.459 1092.32 103.006 1093.08 Q100.575 1093.85 97.7974 1095.4 L97.7974 1090.68 Q100.621 1089.54 103.075 1088.96 Q105.529 1088.39 107.566 1088.39 Q112.936 1088.39 116.131 1091.07 Q119.325 1093.76 119.325 1098.25 Q119.325 1100.38 118.515 1102.3 Q117.728 1104.2 115.621 1106.79 Q115.043 1107.46 111.941 1110.68 Q108.839 1113.87 103.191 1119.63 Z" fill="#000000" fill-rule="evenodd" fill-opacity="1" /><path clip-path="url(#clip210)" d="M129.371 1089.01 L147.728 1089.01 L147.728 1092.95 L133.654 1092.95 L133.654 1101.42 Q134.672 1101.07 135.691 1100.91 Q136.709 1100.72 137.728 1100.72 Q143.515 1100.72 146.894 1103.89 Q150.274 1107.07 150.274 1112.48 Q150.274 1118.06 146.802 1121.16 Q143.33 1124.24 137.01 1124.24 Q134.834 1124.24 132.566 1123.87 Q130.32 1123.5 127.913 1122.76 L127.913 1118.06 Q129.996 1119.2 132.219 1119.75 Q134.441 1120.31 136.918 1120.31 Q140.922 1120.31 143.26 1118.2 Q145.598 1116.09 145.598 1112.48 Q145.598 1108.87 143.26 1106.76 Q140.922 1104.66 136.918 1104.66 Q135.043 1104.66 133.168 1105.07 Q131.316 1105.49 129.371 1106.37 L129.371 1089.01 Z" fill="#000000" fill-rule="evenodd" fill-opacity="1" /><path clip-path="url(#clip210)" d="M62.9365 752.645 Q59.3254 752.645 57.4967 756.209 Q55.6912 759.751 55.6912 766.881 Q55.6912 773.987 57.4967 777.552 Q59.3254 781.094 62.9365 781.094 Q66.5707 781.094 68.3763 777.552 Q70.205 773.987 70.205 766.881 Q70.205 759.751 68.3763 756.209 Q66.5707 752.645 62.9365 752.645 M62.9365 748.941 Q68.7467 748.941 71.8022 753.547 Q74.8809 758.131 74.8809 766.881 Q74.8809 775.607 71.8022 780.214 Q68.7467 784.797 62.9365 784.797 Q57.1264 784.797 54.0477 780.214 Q50.9921 775.607 50.9921 766.881 Q50.9921 758.131 54.0477 753.547 Q57.1264 748.941 62.9365 748.941 Z" fill="#000000" fill-rule="evenodd" fill-opacity="1" /><path clip-path="url(#clip210)" d="M83.0984 778.246 L87.9827 778.246 L87.9827 784.126 L83.0984 784.126 L83.0984 778.246 Z" fill="#000000" fill-rule="evenodd" fill-opacity="1" /><path clip-path="url(#clip210)" d="M98.2141 749.566 L116.57 749.566 L116.57 753.501 L102.496 753.501 L102.496 761.973 Q103.515 761.626 104.534 761.464 Q105.552 761.279 106.571 761.279 Q112.358 761.279 115.737 764.45 Q119.117 767.621 119.117 773.038 Q119.117 778.617 115.645 781.719 Q112.172 784.797 105.853 784.797 Q103.677 784.797 101.409 784.427 Q99.1632 784.057 96.7558 783.316 L96.7558 778.617 Q98.8391 779.751 101.061 780.307 Q103.284 780.862 105.76 780.862 Q109.765 780.862 112.103 778.756 Q114.441 776.649 114.441 773.038 Q114.441 769.427 112.103 767.32 Q109.765 765.214 105.76 765.214 Q103.885 765.214 102.01 765.631 Q100.159 766.047 98.2141 766.927 L98.2141 749.566 Z" fill="#000000" fill-rule="evenodd" fill-opacity="1" /><path clip-path="url(#clip210)" d="M138.33 752.645 Q134.719 752.645 132.89 756.209 Q131.084 759.751 131.084 766.881 Q131.084 773.987 132.89 777.552 Q134.719 781.094 138.33 781.094 Q141.964 781.094 143.769 777.552 Q145.598 773.987 145.598 766.881 Q145.598 759.751 143.769 756.209 Q141.964 752.645 138.33 752.645 M138.33 748.941 Q144.14 748.941 147.195 753.547 Q150.274 758.131 150.274 766.881 Q150.274 775.607 147.195 780.214 Q144.14 784.797 138.33 784.797 Q132.519 784.797 129.441 780.214 Q126.385 775.607 126.385 766.881 Q126.385 758.131 129.441 753.547 Q132.519 748.941 138.33 748.941 Z" fill="#000000" fill-rule="evenodd" fill-opacity="1" /><path clip-path="url(#clip210)" d="M63.9319 413.2 Q60.3208 413.2 58.4921 416.765 Q56.6865 420.307 56.6865 427.437 Q56.6865 434.543 58.4921 438.108 Q60.3208 441.649 63.9319 441.649 Q67.5661 441.649 69.3717 438.108 Q71.2004 434.543 71.2004 427.437 Q71.2004 420.307 69.3717 416.765 Q67.5661 413.2 63.9319 413.2 M63.9319 409.497 Q69.742 409.497 72.7976 414.103 Q75.8763 418.687 75.8763 427.437 Q75.8763 436.163 72.7976 440.77 Q69.742 445.353 63.9319 445.353 Q58.1217 445.353 55.043 440.77 Q51.9875 436.163 51.9875 427.437 Q51.9875 418.687 55.043 414.103 Q58.1217 409.497 63.9319 409.497 Z" fill="#000000" fill-rule="evenodd" fill-opacity="1" /><path clip-path="url(#clip210)" d="M84.0938 438.802 L88.978 438.802 L88.978 444.682 L84.0938 444.682 L84.0938 438.802 Z" fill="#000000" fill-rule="evenodd" fill-opacity="1" /><path clip-path="url(#clip210)" d="M97.9826 410.122 L120.205 410.122 L120.205 412.113 L107.658 444.682 L102.774 444.682 L114.58 414.057 L97.9826 414.057 L97.9826 410.122 Z" fill="#000000" fill-rule="evenodd" fill-opacity="1" /><path clip-path="url(#clip210)" d="M129.371 410.122 L147.728 410.122 L147.728 414.057 L133.654 414.057 L133.654 422.529 Q134.672 422.182 135.691 422.02 Q136.709 421.835 137.728 421.835 Q143.515 421.835 146.894 425.006 Q150.274 428.177 150.274 433.594 Q150.274 439.173 146.802 442.274 Q143.33 445.353 137.01 445.353 Q134.834 445.353 132.566 444.983 Q130.32 444.612 127.913 443.872 L127.913 439.173 Q129.996 440.307 132.219 440.862 Q134.441 441.418 136.918 441.418 Q140.922 441.418 143.26 439.311 Q145.598 437.205 145.598 433.594 Q145.598 429.983 143.26 427.876 Q140.922 425.77 136.918 425.77 Q135.043 425.77 133.168 426.187 Q131.316 426.603 129.371 427.483 L129.371 410.122 Z" fill="#000000" fill-rule="evenodd" fill-opacity="1" /><path clip-path="url(#clip210)" d="M53.7467 101.302 L61.3856 101.302 L61.3856 74.9369 L53.0754 76.6036 L53.0754 72.3443 L61.3393 70.6777 L66.0152 70.6777 L66.0152 101.302 L73.654 101.302 L73.654 105.238 L53.7467 105.238 L53.7467 101.302 Z" fill="#000000" fill-rule="evenodd" fill-opacity="1" /><path clip-path="url(#clip210)" d="M83.0984 99.3581 L87.9827 99.3581 L87.9827 105.238 L83.0984 105.238 L83.0984 99.3581 Z" fill="#000000" fill-rule="evenodd" fill-opacity="1" /><path clip-path="url(#clip210)" d="M108.168 73.7564 Q104.557 73.7564 102.728 77.3211 Q100.922 80.8628 100.922 87.9924 Q100.922 95.0988 102.728 98.6636 Q104.557 102.205 108.168 102.205 Q111.802 102.205 113.608 98.6636 Q115.436 95.0988 115.436 87.9924 Q115.436 80.8628 113.608 77.3211 Q111.802 73.7564 108.168 73.7564 M108.168 70.0527 Q113.978 70.0527 117.033 74.6591 Q120.112 79.2424 120.112 87.9924 Q120.112 96.7192 117.033 101.326 Q113.978 105.909 108.168 105.909 Q102.358 105.909 99.2789 101.326 Q96.2234 96.7192 96.2234 87.9924 Q96.2234 79.2424 99.2789 74.6591 Q102.358 70.0527 108.168 70.0527 Z" fill="#000000" fill-rule="evenodd" fill-opacity="1" /><path clip-path="url(#clip210)" d="M138.33 73.7564 Q134.719 73.7564 132.89 77.3211 Q131.084 80.8628 131.084 87.9924 Q131.084 95.0988 132.89 98.6636 Q134.719 102.205 138.33 102.205 Q141.964 102.205 143.769 98.6636 Q145.598 95.0988 145.598 87.9924 Q145.598 80.8628 143.769 77.3211 Q141.964 73.7564 138.33 73.7564 M138.33 70.0527 Q144.14 70.0527 147.195 74.6591 Q150.274 79.2424 150.274 87.9924 Q150.274 96.7192 147.195 101.326 Q144.14 105.909 138.33 105.909 Q132.519 105.909 129.441 101.326 Q126.385 96.7192 126.385 87.9924 Q126.385 79.2424 129.441 74.6591 Q132.519 70.0527 138.33 70.0527 Z" fill="#000000" fill-rule="evenodd" fill-opacity="1" /><polyline clip-path="url(#clip212)" style="stroke:#009af9; stroke-linecap:round; stroke-linejoin:round; stroke-width:4; stroke-opacity:1; fill:none" points="
  247.59,359.154 249.466,340.182 251.343,1445.72 253.22,294.689 255.097,321.521 256.974,1445.72 258.85,438.569 260.727,329.461 262.604,1445.72 264.481,294.689 
  266.358,1445.72 268.234,359.154 270.111,1445.72 271.988,1445.72 273.865,415.368 275.742,323.389 277.619,1445.72 279.495,202.112 281.372,323.389 283.249,198.096 
  285.126,1445.72 287.003,277.024 288.879,1445.72 290.756,447.28 292.633,294.689 294.51,1445.72 296.387,329.461 298.264,446.879 300.14,276.81 302.017,294.689 
  303.894,446.879 305.771,1445.72 307.648,446.879 309.524,362.317 311.401,363.074 313.278,1445.72 315.155,1445.72 317.032,321.521 318.908,1445.72 320.785,225.604 
  322.662,362.317 324.539,1445.72 326.416,236.83 328.293,236.83 330.169,1445.72 332.046,1445.72 333.923,363.074 335.8,325.516 337.677,276.81 339.553,225.604 
  341.43,415.368 343.307,338.288 345.184,340.182 347.061,225.604 348.938,362.317 350.814,321.521 352.691,1445.72 354.568,447.28 356.445,438.569 358.322,1445.72 
  360.198,321.521 362.075,329.461 363.952,1445.72 365.829,1445.72 367.706,340.182 369.582,236.83 371.459,384.924 373.336,338.288 375.213,225.604 377.09,362.317 
  378.967,362.317 380.843,225.604 382.72,1445.72 384.597,1445.72 386.474,1445.72 388.351,1445.72 390.227,201.67 392.104,362.317 393.981,1445.72 395.858,277.024 
  397.735,308.8 399.611,1445.72 401.488,201.67 403.365,338.288 405.242,1445.72 407.119,340.182 408.996,218.486 410.872,1445.72 412.749,225.604 414.626,362.317 
  416.503,212.366 418.38,218.486 420.256,325.516 422.133,294.689 424.01,378.48 425.887,294.689 427.764,447.28 429.641,1445.72 431.517,1445.72 433.394,310.962 
  435.271,447.28 437.148,363.074 439.025,325.516 440.901,362.317 442.778,1445.72 444.655,198.096 446.532,1445.72 448.409,362.317 450.285,1445.72 452.162,325.516 
  454.039,378.48 455.916,87.9941 457.793,1445.72 459.67,1445.72 461.546,415.368 463.423,1445.72 465.3,362.317 467.177,359.154 469.054,1445.72 470.93,277.024 
  472.807,201.67 474.684,1445.72 476.561,308.8 478.438,325.516 480.315,362.317 482.191,362.317 484.068,415.368 485.945,225.604 487.822,1445.72 489.699,340.182 
  491.575,359.154 493.452,212.366 495.329,378.48 497.206,323.389 499.083,1445.72 500.959,294.689 502.836,362.317 504.713,362.317 506.59,202.112 508.467,325.516 
  510.344,362.317 512.22,310.962 514.097,236.83 515.974,1445.72 517.851,225.604 519.728,212.366 521.604,1445.72 523.481,225.604 525.358,1445.72 527.235,294.689 
  529.112,329.461 530.988,1445.72 532.865,340.182 534.742,378.48 536.619,1445.72 538.496,447.28 540.373,1445.72 542.249,438.569 544.126,1445.72 546.003,438.569 
  547.88,1445.72 549.757,277.024 551.633,1445.72 553.51,308.8 555.387,415.368 557.264,236.83 559.141,1445.72 561.018,308.8 562.894,1445.72 564.771,362.317 
  566.648,1445.72 568.525,1445.72 570.402,378.48 572.278,1445.72 574.155,325.516 576.032,202.112 577.909,277.024 579.786,362.317 581.662,1445.72 583.539,378.48 
  585.416,202.112 587.293,212.366 589.17,378.48 591.047,325.516 592.923,338.288 594.8,338.288 596.677,329.461 598.554,338.288 600.431,225.604 602.307,438.569 
  604.184,225.604 606.061,1445.72 607.938,1445.72 609.815,447.28 611.692,1445.72 613.568,236.83 615.445,321.521 617.322,446.879 619.199,1445.72 621.076,362.317 
  622.952,446.879 624.829,1445.72 626.706,276.81 628.583,338.288 630.46,415.368 632.336,359.154 634.213,201.67 636.09,212.366 637.967,1445.72 639.844,218.486 
  641.721,384.924 643.597,276.81 645.474,362.317 647.351,329.461 649.228,212.366 651.105,438.569 652.981,359.154 654.858,415.368 656.735,1445.72 658.612,225.604 
  660.489,415.368 662.366,325.516 664.242,1445.72 666.119,1445.72 667.996,323.389 669.873,1445.72 671.75,277.024 673.626,362.317 675.503,1445.72 677.38,362.317 
  679.257,276.81 681.134,87.9941 683.01,276.81 684.887,294.689 686.764,1445.72 688.641,340.182 690.518,1445.72 692.395,1445.72 694.271,277.024 696.148,1445.72 
  698.025,362.317 699.902,1445.72 701.779,359.154 703.655,1445.72 705.532,276.81 707.409,363.074 709.286,1445.72 711.163,1445.72 713.039,362.317 714.916,1445.72 
  716.793,87.9941 718.67,212.366 720.547,1445.72 722.424,236.83 724.3,225.604 726.177,294.689 728.054,1445.72 729.931,1445.72 731.808,1445.72 733.684,1445.72 
  735.561,1445.72 737.438,359.154 739.315,201.67 741.192,446.879 743.069,1445.72 744.945,1445.72 746.822,310.962 748.699,415.368 750.576,1445.72 752.453,329.461 
  754.329,438.569 756.206,446.879 758.083,323.389 759.96,1445.72 761.837,362.317 763.713,88.5629 765.59,378.48 767.467,308.8 769.344,363.074 771.221,438.569 
  773.098,201.67 774.974,325.516 776.851,1445.72 778.728,310.962 780.605,1445.72 782.482,276.81 784.358,378.48 786.235,212.366 788.112,338.288 789.989,225.604 
  791.866,1445.72 793.743,338.288 795.619,294.689 797.496,236.83 799.373,202.112 801.25,1445.72 803.127,201.67 805.003,362.317 806.88,323.389 808.757,359.154 
  810.634,362.317 812.511,1445.72 814.387,1445.72 816.264,363.074 818.141,294.689 820.018,379.274 821.895,1445.72 823.772,323.389 825.648,323.389 827.525,1445.72 
  829.402,329.461 831.279,201.67 833.156,1445.72 835.032,1445.72 836.909,310.962 838.786,338.288 840.663,212.366 842.54,1445.72 844.416,276.81 846.293,340.182 
  848.17,447.28 850.047,1445.72 851.924,277.024 853.801,1445.72 855.677,1445.72 857.554,362.317 859.431,378.48 861.308,329.461 863.185,359.154 865.061,362.317 
  866.938,294.689 868.815,338.288 870.692,87.9941 872.569,1445.72 874.446,1445.72 876.322,201.67 878.199,1445.72 880.076,1445.72 881.953,1445.72 883.83,379.274 
  885.706,1445.72 887.583,201.67 889.46,276.81 891.337,1445.72 893.214,202.112 895.09,1445.72 896.967,1445.72 898.844,1445.72 900.721,1445.72 902.598,1445.72 
  904.475,236.83 906.351,362.317 908.228,1445.72 910.105,1445.72 911.982,384.924 913.859,447.28 915.735,225.604 917.612,308.8 919.489,338.288 921.366,359.154 
  923.243,277.024 925.12,1445.72 926.996,276.81 928.873,294.689 930.75,236.83 932.627,1445.72 934.504,212.366 936.38,201.67 938.257,1445.72 940.134,359.154 
  942.011,1445.72 943.888,1445.72 945.764,87.9941 947.641,340.182 949.518,308.8 951.395,236.83 953.272,363.074 955.149,1445.72 957.025,225.604 958.902,1445.72 
  960.779,1445.72 962.656,1445.72 964.533,236.83 966.409,379.274 968.286,201.67 970.163,362.317 972.04,338.288 973.917,362.317 975.794,1445.72 977.67,1445.72 
  979.547,201.67 981.424,1445.72 983.301,277.024 985.178,384.924 987.054,378.48 988.931,1445.72 990.808,1445.72 992.685,359.154 994.562,338.288 996.438,359.154 
  998.315,438.569 1000.19,294.689 1002.07,236.83 1003.95,362.317 1005.82,1445.72 1007.7,1445.72 1009.58,225.604 1011.45,438.569 1013.33,277.024 1015.21,379.274 
  1017.08,1445.72 1018.96,1445.72 1020.84,378.48 1022.71,384.924 1024.59,1445.72 1026.47,1445.72 1028.34,379.274 1030.22,212.366 1032.1,1445.72 1033.97,384.924 
  1035.85,1445.72 1037.73,1445.72 1039.61,225.604 1041.48,276.81 1043.36,321.521 1045.24,1445.72 1047.11,1445.72 1048.99,415.368 1050.87,1445.72 1052.74,321.521 
  1054.62,1445.72 1056.5,359.154 1058.37,379.274 1060.25,1445.72 1062.13,1445.72 1064,415.368 1065.88,1445.72 1067.76,363.074 1069.63,1445.72 1071.51,1445.72 
  1073.39,201.67 1075.26,447.28 1077.14,363.074 1079.02,1445.72 1080.9,321.521 1082.77,276.81 1084.65,379.274 1086.53,236.83 1088.4,1445.72 1090.28,236.83 
  1092.16,212.366 1094.03,362.317 1095.91,310.962 1097.79,1445.72 1099.66,379.274 1101.54,1445.72 1103.42,438.569 1105.29,447.28 1107.17,1445.72 1109.05,202.112 
  1110.92,276.81 1112.8,308.8 1114.68,446.879 1116.55,323.389 1118.43,201.67 1120.31,1445.72 1122.19,1445.72 1124.06,329.461 1125.94,1445.72 1127.82,1445.72 
  1129.69,415.368 1131.57,1445.72 1133.45,415.368 1135.32,379.274 1137.2,212.366 1139.08,1445.72 1140.95,362.317 1142.83,1445.72 1144.71,379.274 1146.58,1445.72 
  1148.46,338.288 1150.34,321.521 1152.21,225.604 1154.09,363.074 1155.97,415.368 1157.84,415.368 1159.72,1445.72 1161.6,329.461 1163.47,325.516 1165.35,1445.72 
  1167.23,1445.72 1169.11,446.879 1170.98,1445.72 1172.86,447.28 1174.74,1445.72 1176.61,359.154 1178.49,1445.72 1180.37,310.962 1182.24,1445.72 1184.12,308.8 
  1186,384.924 1187.87,236.83 1189.75,1445.72 1191.63,1445.72 1193.5,201.67 1195.38,1445.72 1197.26,1445.72 1199.13,277.024 1201.01,1445.72 1202.89,384.924 
  1204.76,277.024 1206.64,1445.72 1208.52,225.604 1210.4,1445.72 1212.27,308.8 1214.15,1445.72 1216.03,325.516 1217.9,276.81 1219.78,1445.72 1221.66,1445.72 
  1223.53,201.67 1225.41,276.81 1227.29,323.389 1229.16,362.317 1231.04,340.182 1232.92,447.28 1234.79,1445.72 1236.67,325.516 1238.55,363.074 1240.42,1445.72 
  1242.3,1445.72 1244.18,218.486 1246.05,379.274 1247.93,363.074 1249.81,362.317 1251.69,1445.72 1253.56,415.368 1255.44,212.366 1257.32,202.112 1259.19,415.368 
  1261.07,1445.72 1262.95,379.274 1264.82,198.096 1266.7,308.8 1268.58,212.366 1270.45,294.689 1272.33,438.569 1274.21,225.604 1276.08,1445.72 1277.96,1445.72 
  1279.84,329.461 1281.71,1445.72 1283.59,1445.72 1285.47,276.81 1287.34,363.074 1289.22,325.516 1291.1,325.516 1292.98,378.48 1294.85,1445.72 1296.73,1445.72 
  1298.61,321.521 1300.48,225.604 1302.36,359.154 1304.24,359.154 1306.11,446.879 1307.99,325.516 1309.87,338.288 1311.74,212.366 1313.62,1445.72 1315.5,1445.72 
  1317.37,1445.72 1319.25,362.317 1321.13,1445.72 1323,1445.72 1324.88,202.112 1326.76,225.604 1328.63,338.288 1330.51,378.48 1332.39,379.274 1334.27,363.074 
  1336.14,212.366 1338.02,340.182 1339.9,340.182 1341.77,446.879 1343.65,359.154 1345.53,1445.72 1347.4,1445.72 1349.28,362.317 1351.16,236.83 1353.03,1445.72 
  1354.91,321.521 1356.79,363.074 1358.66,236.83 1360.54,1445.72 1362.42,384.924 1364.29,447.28 1366.17,1445.72 1368.05,225.604 1369.92,1445.72 1371.8,1445.72 
  1373.68,1445.72 1375.55,321.521 1377.43,438.569 1379.31,329.461 1381.19,1445.72 1383.06,323.389 1384.94,1445.72 1386.82,1445.72 1388.69,1445.72 1390.57,277.024 
  1392.45,340.182 1394.32,1445.72 1396.2,359.154 1398.08,362.317 1399.95,1445.72 1401.83,362.317 1403.71,1445.72 1405.58,446.879 1407.46,340.182 1409.34,446.879 
  1411.21,1445.72 1413.09,438.569 1414.97,415.368 1416.84,1445.72 1418.72,1445.72 1420.6,359.154 1422.48,88.5629 1424.35,1445.72 1426.23,277.024 1428.11,1445.72 
  1429.98,308.8 1431.86,325.516 1433.74,218.486 1435.61,310.962 1437.49,277.024 1439.37,276.81 1441.24,415.368 1443.12,201.67 1445,225.604 1446.87,1445.72 
  1448.75,310.962 1450.63,1445.72 1452.5,446.879 1454.38,447.28 1456.26,310.962 1458.13,379.274 1460.01,446.879 1461.89,325.516 1463.77,218.486 1465.64,198.096 
  1467.52,225.604 1469.4,323.389 1471.27,1445.72 1473.15,310.962 1475.03,338.288 1476.9,202.112 1478.78,1445.72 1480.66,1445.72 1482.53,1445.72 1484.41,359.154 
  1486.29,362.317 1488.16,277.024 1490.04,88.5629 1491.92,362.317 1493.79,212.366 1495.67,1445.72 1497.55,212.366 1499.42,1445.72 1501.3,359.154 1503.18,201.67 
  1505.06,1445.72 1506.93,329.461 1508.81,1445.72 1510.69,212.366 1512.56,362.317 1514.44,438.569 1516.32,1445.72 1518.19,1445.72 1520.07,379.274 1521.95,446.879 
  1523.82,1445.72 1525.7,201.67 1527.58,379.274 1529.45,378.48 1531.33,225.604 1533.21,198.096 1535.08,1445.72 1536.96,321.521 1538.84,1445.72 1540.71,212.366 
  1542.59,1445.72 1544.47,415.368 1546.35,1445.72 1548.22,1445.72 1550.1,236.83 1551.98,362.317 1553.85,384.924 1555.73,1445.72 1557.61,446.879 1559.48,212.366 
  1561.36,1445.72 1563.24,225.604 1565.11,308.8 1566.99,325.516 1568.87,1445.72 1570.74,325.516 1572.62,236.83 1574.5,236.83 1576.37,323.389 1578.25,379.274 
  1580.13,277.024 1582,1445.72 1583.88,1445.72 1585.76,198.096 1587.63,438.569 1589.51,415.368 1591.39,225.604 1593.27,202.112 1595.14,415.368 1597.02,212.366 
  1598.9,1445.72 1600.77,1445.72 1602.65,1445.72 1604.53,363.074 1606.4,308.8 1608.28,447.28 1610.16,1445.72 1612.03,1445.72 1613.91,362.317 1615.79,363.074 
  1617.66,338.288 1619.54,201.67 1621.42,325.516 1623.29,1445.72 1625.17,1445.72 1627.05,1445.72 1628.92,225.604 1630.8,225.604 1632.68,338.288 1634.56,323.389 
  1636.43,308.8 1638.31,1445.72 1640.19,323.389 1642.06,212.366 1643.94,1445.72 1645.82,1445.72 1647.69,323.389 1649.57,277.024 1651.45,338.288 1653.32,325.516 
  1655.2,340.182 1657.08,1445.72 1658.95,447.28 1660.83,362.317 1662.71,438.569 1664.58,362.317 1666.46,1445.72 1668.34,294.689 1670.21,1445.72 1672.09,1445.72 
  1673.97,1445.72 1675.85,378.48 1677.72,362.317 1679.6,236.83 1681.48,277.024 1683.35,325.516 1685.23,1445.72 1687.11,362.317 1688.98,447.28 1690.86,1445.72 
  1692.74,321.521 1694.61,1445.72 1696.49,212.366 1698.37,1445.72 1700.24,236.83 1702.12,362.317 1704,384.924 1705.87,379.274 1707.75,438.569 1709.63,359.154 
  1711.5,1445.72 1713.38,1445.72 1715.26,1445.72 1717.14,338.288 1719.01,1445.72 1720.89,415.368 1722.77,1445.72 1724.64,277.024 1726.52,212.366 1728.4,1445.72 
  1730.27,415.368 1732.15,1445.72 1734.03,1445.72 1735.9,363.074 1737.78,325.516 1739.66,1445.72 1741.53,202.112 1743.41,1445.72 1745.29,362.317 1747.16,294.689 
  1749.04,1445.72 1750.92,1445.72 1752.79,1445.72 1754.67,1445.72 1756.55,1445.72 1758.43,1445.72 1760.3,276.81 1762.18,384.924 1764.06,379.274 1765.93,308.8 
  1767.81,362.317 1769.69,1445.72 1771.56,447.28 1773.44,323.389 1775.32,446.879 1777.19,384.924 1779.07,447.28 1780.95,1445.72 1782.82,87.9941 1784.7,1445.72 
  1786.58,325.516 1788.45,446.879 1790.33,325.516 1792.21,212.366 1794.08,1445.72 1795.96,329.461 1797.84,415.368 1799.72,384.924 1801.59,218.486 1803.47,379.274 
  1805.35,1445.72 1807.22,325.516 1809.1,1445.72 1810.98,225.604 1812.85,446.879 1814.73,294.689 1816.61,321.521 1818.48,1445.72 1820.36,198.096 1822.24,294.689 
  1824.11,225.604 1825.99,338.288 1827.87,1445.72 1829.74,310.962 1831.62,1445.72 1833.5,447.28 1835.37,447.28 1837.25,1445.72 1839.13,1445.72 1841,212.366 
  1842.88,362.317 1844.76,310.962 1846.64,236.83 1848.51,308.8 1850.39,325.516 1852.27,236.83 1854.14,1445.72 1856.02,447.28 1857.9,1445.72 1859.77,202.112 
  1861.65,1445.72 1863.53,198.096 1865.4,1445.72 1867.28,359.154 1869.16,321.521 1871.03,225.604 1872.91,277.024 1874.79,87.9941 1876.66,363.074 1878.54,338.288 
  1880.42,1445.72 1882.29,236.83 1884.17,1445.72 1886.05,294.689 1887.93,294.689 1889.8,1445.72 1891.68,362.317 1893.56,362.317 1895.43,362.317 1897.31,308.8 
  1899.19,1445.72 1901.06,277.024 1902.94,340.182 1904.82,415.368 1906.69,1445.72 1908.57,340.182 1910.45,1445.72 1912.32,363.074 1914.2,277.024 1916.08,1445.72 
  1917.95,276.81 1919.83,447.28 1921.71,362.317 1923.58,321.521 1925.46,323.389 1927.34,438.569 1929.22,198.096 1931.09,415.368 1932.97,212.366 1934.85,1445.72 
  1936.72,384.924 1938.6,1445.72 1940.48,1445.72 1942.35,201.67 1944.23,310.962 1946.11,340.182 1947.98,308.8 1949.86,1445.72 1951.74,276.81 1953.61,329.461 
  1955.49,329.461 1957.37,1445.72 1959.24,379.274 1961.12,1445.72 1963,415.368 1964.87,1445.72 1966.75,1445.72 1968.63,294.689 1970.51,378.48 1972.38,338.288 
  1974.26,1445.72 1976.14,415.368 1978.01,340.182 1979.89,1445.72 1981.77,338.288 1983.64,1445.72 1985.52,363.074 1987.4,225.604 1989.27,438.569 1991.15,225.604 
  1993.03,1445.72 1994.9,362.317 1996.78,340.182 1998.66,378.48 2000.53,218.486 2002.41,415.368 2004.29,198.096 2006.16,198.096 2008.04,202.112 2009.92,1445.72 
  2011.8,276.81 2013.67,1445.72 2015.55,225.604 2017.43,447.28 2019.3,447.28 2021.18,1445.72 2023.06,1445.72 2024.93,363.074 2026.81,276.81 2028.69,378.48 
  2030.56,1445.72 2032.44,379.274 2034.32,1445.72 2036.19,1445.72 2038.07,323.389 2039.95,310.962 2041.82,362.317 2043.7,201.67 2045.58,1445.72 2047.45,325.516 
  2049.33,323.389 2051.21,363.074 2053.08,276.81 2054.96,1445.72 2056.84,446.879 2058.72,415.368 2060.59,438.569 2062.47,1445.72 2064.35,198.096 2066.22,87.9941 
  2068.1,446.879 2069.98,323.389 2071.85,1445.72 2073.73,1445.72 2075.61,1445.72 2077.48,363.074 2079.36,363.074 2081.24,415.368 2083.11,87.9941 2084.99,1445.72 
  2086.87,1445.72 2088.74,362.317 2090.62,225.604 2092.5,1445.72 2094.37,277.024 2096.25,363.074 2098.13,1445.72 2100.01,363.074 2101.88,212.366 2103.76,1445.72 
  2105.64,384.924 2107.51,446.879 2109.39,201.67 2111.27,276.81 2113.14,236.83 2115.02,379.274 2116.9,384.924 2118.77,87.9941 2120.65,325.516 2122.53,1445.72 
  2124.4,362.317 2126.28,236.83 2128.16,1445.72 2130.03,1445.72 2131.91,378.48 2133.79,236.83 2135.66,359.154 2137.54,447.28 2139.42,276.81 2141.3,294.689 
  2143.17,447.28 2145.05,236.83 2146.93,212.366 2148.8,378.48 2150.68,1445.72 2152.56,225.604 2154.43,338.288 2156.31,338.288 2158.19,1445.72 2160.06,276.81 
  2161.94,378.48 2163.82,384.924 2165.69,1445.72 2167.57,1445.72 2169.45,325.516 2171.32,415.368 2173.2,212.366 2175.08,276.81 2176.95,1445.72 2178.83,277.024 
  2180.71,447.28 2182.59,1445.72 2184.46,1445.72 2186.34,415.368 2188.22,276.81 2190.09,1445.72 2191.97,447.28 2193.85,447.28 2195.72,321.521 2197.6,447.28 
  2199.48,212.366 2201.35,236.83 2203.23,362.317 2205.11,87.9941 2206.98,198.096 2208.86,294.689 2210.74,202.112 2212.61,225.604 2214.49,325.516 2216.37,446.879 
  2218.24,438.569 2220.12,1445.72 2222,1445.72 2223.88,308.8 2225.75,1445.72 2227.63,1445.72 2229.51,1445.72 2231.38,415.368 2233.26,218.486 2235.14,218.486 
  2237.01,225.604 2238.89,202.112 2240.77,359.154 2242.64,362.317 2244.52,1445.72 2246.4,1445.72 2248.27,1445.72 2250.15,308.8 2252.03,1445.72 2253.9,362.317 
  2255.78,325.516 2257.66,236.83 2259.53,329.461 2261.41,446.879 2263.29,308.8 2265.16,359.154 2267.04,340.182 2268.92,202.112 2270.8,1445.72 2272.67,362.317 
  2274.55,447.28 2276.43,446.879 2278.3,438.569 2280.18,276.81 2282.06,212.366 2283.93,1445.72 2285.81,212.366 2287.69,323.389 2289.56,1445.72 2291.44,1445.72 
  
  "/>
<polyline clip-path="url(#clip212)" style="stroke:#e26f46; stroke-linecap:round; stroke-linejoin:round; stroke-width:4; stroke-opacity:1; fill:none" points="
  247.59,1174.54 249.466,1193.51 251.343,87.9763 253.22,1239 255.097,1212.17 256.974,87.9763 258.85,1095.12 260.727,1204.23 262.604,87.9763 264.481,1239 
  266.358,87.9763 268.234,1174.54 270.111,87.9763 271.988,87.9763 273.865,1118.32 275.742,1210.3 277.619,87.9763 279.495,1331.58 281.372,1210.3 283.249,1335.6 
  285.126,87.9763 287.003,1256.67 288.879,87.9763 290.756,1086.41 292.633,1239 294.51,87.9763 296.387,1204.23 298.264,1086.81 300.14,1256.88 302.017,1239 
  303.894,1086.81 305.771,87.9763 307.648,1086.81 309.524,1171.38 311.401,1170.62 313.278,87.9763 315.155,87.9763 317.032,1212.17 318.908,87.9763 320.785,1308.09 
  322.662,1171.38 324.539,87.9763 326.416,1296.86 328.293,1296.86 330.169,87.9763 332.046,87.9763 333.923,1170.62 335.8,1208.18 337.677,1256.88 339.553,1308.09 
  341.43,1118.32 343.307,1195.4 345.184,1193.51 347.061,1308.09 348.938,1171.38 350.814,1212.17 352.691,87.9763 354.568,1086.41 356.445,1095.12 358.322,87.9763 
  360.198,1212.17 362.075,1204.23 363.952,87.9763 365.829,87.9763 367.706,1193.51 369.582,1296.86 371.459,1148.77 373.336,1195.4 375.213,1308.09 377.09,1171.38 
  378.967,1171.38 380.843,1308.09 382.72,87.9763 384.597,87.9763 386.474,87.9763 388.351,87.9763 390.227,1332.02 392.104,1171.38 393.981,87.9763 395.858,1256.67 
  397.735,1224.89 399.611,87.9763 401.488,1332.02 403.365,1195.4 405.242,87.9763 407.119,1193.51 408.996,1315.21 410.872,87.9763 412.749,1308.09 414.626,1171.38 
  416.503,1321.33 418.38,1315.21 420.256,1208.18 422.133,1239 424.01,1155.21 425.887,1239 427.764,1086.41 429.641,87.9763 431.517,87.9763 433.394,1222.73 
  435.271,1086.41 437.148,1170.62 439.025,1208.18 440.901,1171.38 442.778,87.9763 444.655,1335.6 446.532,87.9763 448.409,1171.38 450.285,87.9763 452.162,1208.18 
  454.039,1155.21 455.916,1445.7 457.793,87.9763 459.67,87.9763 461.546,1118.32 463.423,87.9763 465.3,1171.38 467.177,1174.54 469.054,87.9763 470.93,1256.67 
  472.807,1332.02 474.684,87.9763 476.561,1224.89 478.438,1208.18 480.315,1171.38 482.191,1171.38 484.068,1118.32 485.945,1308.09 487.822,87.9763 489.699,1193.51 
  491.575,1174.54 493.452,1321.33 495.329,1155.21 497.206,1210.3 499.083,87.9763 500.959,1239 502.836,1171.38 504.713,1171.38 506.59,1331.58 508.467,1208.18 
  510.344,1171.38 512.22,1222.73 514.097,1296.86 515.974,87.9763 517.851,1308.09 519.728,1321.33 521.604,87.9763 523.481,1308.09 525.358,87.9763 527.235,1239 
  529.112,1204.23 530.988,87.9763 532.865,1193.51 534.742,1155.21 536.619,87.9763 538.496,1086.41 540.373,87.9763 542.249,1095.12 544.126,87.9763 546.003,1095.12 
  547.88,87.9763 549.757,1256.67 551.633,87.9763 553.51,1224.89 555.387,1118.32 557.264,1296.86 559.141,87.9763 561.018,1224.89 562.894,87.9763 564.771,1171.38 
  566.648,87.9763 568.525,87.9763 570.402,1155.21 572.278,87.9763 574.155,1208.18 576.032,1331.58 577.909,1256.67 579.786,1171.38 581.662,87.9763 583.539,1155.21 
  585.416,1331.58 587.293,1321.33 589.17,1155.21 591.047,1208.18 592.923,1195.4 594.8,1195.4 596.677,1204.23 598.554,1195.4 600.431,1308.09 602.307,1095.12 
  604.184,1308.09 606.061,87.9763 607.938,87.9763 609.815,1086.41 611.692,87.9763 613.568,1296.86 615.445,1212.17 617.322,1086.81 619.199,87.9763 621.076,1171.38 
  622.952,1086.81 624.829,87.9763 626.706,1256.88 628.583,1195.4 630.46,1118.32 632.336,1174.54 634.213,1332.02 636.09,1321.33 637.967,87.9763 639.844,1315.21 
  641.721,1148.77 643.597,1256.88 645.474,1171.38 647.351,1204.23 649.228,1321.33 651.105,1095.12 652.981,1174.54 654.858,1118.32 656.735,87.9763 658.612,1308.09 
  660.489,1118.32 662.366,1208.18 664.242,87.9763 666.119,87.9763 667.996,1210.3 669.873,87.9763 671.75,1256.67 673.626,1171.38 675.503,87.9763 677.38,1171.38 
  679.257,1256.88 681.134,1445.7 683.01,1256.88 684.887,1239 686.764,87.9763 688.641,1193.51 690.518,87.9763 692.395,87.9763 694.271,1256.67 696.148,87.9763 
  698.025,1171.38 699.902,87.9763 701.779,1174.54 703.655,87.9763 705.532,1256.88 707.409,1170.62 709.286,87.9763 711.163,87.9763 713.039,1171.38 714.916,87.9763 
  716.793,1445.7 718.67,1321.33 720.547,87.9763 722.424,1296.86 724.3,1308.09 726.177,1239 728.054,87.9763 729.931,87.9763 731.808,87.9763 733.684,87.9763 
  735.561,87.9763 737.438,1174.54 739.315,1332.02 741.192,1086.81 743.069,87.9763 744.945,87.9763 746.822,1222.73 748.699,1118.32 750.576,87.9763 752.453,1204.23 
  754.329,1095.12 756.206,1086.81 758.083,1210.3 759.96,87.9763 761.837,1171.38 763.713,1445.13 765.59,1155.21 767.467,1224.89 769.344,1170.62 771.221,1095.12 
  773.098,1332.02 774.974,1208.18 776.851,87.9763 778.728,1222.73 780.605,87.9763 782.482,1256.88 784.358,1155.21 786.235,1321.33 788.112,1195.4 789.989,1308.09 
  791.866,87.9763 793.743,1195.4 795.619,1239 797.496,1296.86 799.373,1331.58 801.25,87.9763 803.127,1332.02 805.003,1171.38 806.88,1210.3 808.757,1174.54 
  810.634,1171.38 812.511,87.9763 814.387,87.9763 816.264,1170.62 818.141,1239 820.018,1154.42 821.895,87.9763 823.772,1210.3 825.648,1210.3 827.525,87.9763 
  829.402,1204.23 831.279,1332.02 833.156,87.9763 835.032,87.9763 836.909,1222.73 838.786,1195.4 840.663,1321.33 842.54,87.9763 844.416,1256.88 846.293,1193.51 
  848.17,1086.41 850.047,87.9763 851.924,1256.67 853.801,87.9763 855.677,87.9763 857.554,1171.38 859.431,1155.21 861.308,1204.23 863.185,1174.54 865.061,1171.38 
  866.938,1239 868.815,1195.4 870.692,1445.7 872.569,87.9763 874.446,87.9763 876.322,1332.02 878.199,87.9763 880.076,87.9763 881.953,87.9763 883.83,1154.42 
  885.706,87.9763 887.583,1332.02 889.46,1256.88 891.337,87.9763 893.214,1331.58 895.09,87.9763 896.967,87.9763 898.844,87.9763 900.721,87.9763 902.598,87.9763 
  904.475,1296.86 906.351,1171.38 908.228,87.9763 910.105,87.9763 911.982,1148.77 913.859,1086.41 915.735,1308.09 917.612,1224.89 919.489,1195.4 921.366,1174.54 
  923.243,1256.67 925.12,87.9763 926.996,1256.88 928.873,1239 930.75,1296.86 932.627,87.9763 934.504,1321.33 936.38,1332.02 938.257,87.9763 940.134,1174.54 
  942.011,87.9763 943.888,87.9763 945.764,1445.7 947.641,1193.51 949.518,1224.89 951.395,1296.86 953.272,1170.62 955.149,87.9763 957.025,1308.09 958.902,87.9763 
  960.779,87.9763 962.656,87.9763 964.533,1296.86 966.409,1154.42 968.286,1332.02 970.163,1171.38 972.04,1195.4 973.917,1171.38 975.794,87.9763 977.67,87.9763 
  979.547,1332.02 981.424,87.9763 983.301,1256.67 985.178,1148.77 987.054,1155.21 988.931,87.9763 990.808,87.9763 992.685,1174.54 994.562,1195.4 996.438,1174.54 
  998.315,1095.12 1000.19,1239 1002.07,1296.86 1003.95,1171.38 1005.82,87.9763 1007.7,87.9763 1009.58,1308.09 1011.45,1095.12 1013.33,1256.67 1015.21,1154.42 
  1017.08,87.9763 1018.96,87.9763 1020.84,1155.21 1022.71,1148.77 1024.59,87.9763 1026.47,87.9763 1028.34,1154.42 1030.22,1321.33 1032.1,87.9763 1033.97,1148.77 
  1035.85,87.9763 1037.73,87.9763 1039.61,1308.09 1041.48,1256.88 1043.36,1212.17 1045.24,87.9763 1047.11,87.9763 1048.99,1118.32 1050.87,87.9763 1052.74,1212.17 
  1054.62,87.9763 1056.5,1174.54 1058.37,1154.42 1060.25,87.9763 1062.13,87.9763 1064,1118.32 1065.88,87.9763 1067.76,1170.62 1069.63,87.9763 1071.51,87.9763 
  1073.39,1332.02 1075.26,1086.41 1077.14,1170.62 1079.02,87.9763 1080.9,1212.17 1082.77,1256.88 1084.65,1154.42 1086.53,1296.86 1088.4,87.9763 1090.28,1296.86 
  1092.16,1321.33 1094.03,1171.38 1095.91,1222.73 1097.79,87.9763 1099.66,1154.42 1101.54,87.9763 1103.42,1095.12 1105.29,1086.41 1107.17,87.9763 1109.05,1331.58 
  1110.92,1256.88 1112.8,1224.89 1114.68,1086.81 1116.55,1210.3 1118.43,1332.02 1120.31,87.9763 1122.19,87.9763 1124.06,1204.23 1125.94,87.9763 1127.82,87.9763 
  1129.69,1118.32 1131.57,87.9763 1133.45,1118.32 1135.32,1154.42 1137.2,1321.33 1139.08,87.9763 1140.95,1171.38 1142.83,87.9763 1144.71,1154.42 1146.58,87.9763 
  1148.46,1195.4 1150.34,1212.17 1152.21,1308.09 1154.09,1170.62 1155.97,1118.32 1157.84,1118.32 1159.72,87.9763 1161.6,1204.23 1163.47,1208.18 1165.35,87.9763 
  1167.23,87.9763 1169.11,1086.81 1170.98,87.9763 1172.86,1086.41 1174.74,87.9763 1176.61,1174.54 1178.49,87.9763 1180.37,1222.73 1182.24,87.9763 1184.12,1224.89 
  1186,1148.77 1187.87,1296.86 1189.75,87.9763 1191.63,87.9763 1193.5,1332.02 1195.38,87.9763 1197.26,87.9763 1199.13,1256.67 1201.01,87.9763 1202.89,1148.77 
  1204.76,1256.67 1206.64,87.9763 1208.52,1308.09 1210.4,87.9763 1212.27,1224.89 1214.15,87.9763 1216.03,1208.18 1217.9,1256.88 1219.78,87.9763 1221.66,87.9763 
  1223.53,1332.02 1225.41,1256.88 1227.29,1210.3 1229.16,1171.38 1231.04,1193.51 1232.92,1086.41 1234.79,87.9763 1236.67,1208.18 1238.55,1170.62 1240.42,87.9763 
  1242.3,87.9763 1244.18,1315.21 1246.05,1154.42 1247.93,1170.62 1249.81,1171.38 1251.69,87.9763 1253.56,1118.32 1255.44,1321.33 1257.32,1331.58 1259.19,1118.32 
  1261.07,87.9763 1262.95,1154.42 1264.82,1335.6 1266.7,1224.89 1268.58,1321.33 1270.45,1239 1272.33,1095.12 1274.21,1308.09 1276.08,87.9763 1277.96,87.9763 
  1279.84,1204.23 1281.71,87.9763 1283.59,87.9763 1285.47,1256.88 1287.34,1170.62 1289.22,1208.18 1291.1,1208.18 1292.98,1155.21 1294.85,87.9763 1296.73,87.9763 
  1298.61,1212.17 1300.48,1308.09 1302.36,1174.54 1304.24,1174.54 1306.11,1086.81 1307.99,1208.18 1309.87,1195.4 1311.74,1321.33 1313.62,87.9763 1315.5,87.9763 
  1317.37,87.9763 1319.25,1171.38 1321.13,87.9763 1323,87.9763 1324.88,1331.58 1326.76,1308.09 1328.63,1195.4 1330.51,1155.21 1332.39,1154.42 1334.27,1170.62 
  1336.14,1321.33 1338.02,1193.51 1339.9,1193.51 1341.77,1086.81 1343.65,1174.54 1345.53,87.9763 1347.4,87.9763 1349.28,1171.38 1351.16,1296.86 1353.03,87.9763 
  1354.91,1212.17 1356.79,1170.62 1358.66,1296.86 1360.54,87.9763 1362.42,1148.77 1364.29,1086.41 1366.17,87.9763 1368.05,1308.09 1369.92,87.9763 1371.8,87.9763 
  1373.68,87.9763 1375.55,1212.17 1377.43,1095.12 1379.31,1204.23 1381.19,87.9763 1383.06,1210.3 1384.94,87.9763 1386.82,87.9763 1388.69,87.9763 1390.57,1256.67 
  1392.45,1193.51 1394.32,87.9763 1396.2,1174.54 1398.08,1171.38 1399.95,87.9763 1401.83,1171.38 1403.71,87.9763 1405.58,1086.81 1407.46,1193.51 1409.34,1086.81 
  1411.21,87.9763 1413.09,1095.12 1414.97,1118.32 1416.84,87.9763 1418.72,87.9763 1420.6,1174.54 1422.48,1445.13 1424.35,87.9763 1426.23,1256.67 1428.11,87.9763 
  1429.98,1224.89 1431.86,1208.18 1433.74,1315.21 1435.61,1222.73 1437.49,1256.67 1439.37,1256.88 1441.24,1118.32 1443.12,1332.02 1445,1308.09 1446.87,87.9763 
  1448.75,1222.73 1450.63,87.9763 1452.5,1086.81 1454.38,1086.41 1456.26,1222.73 1458.13,1154.42 1460.01,1086.81 1461.89,1208.18 1463.77,1315.21 1465.64,1335.6 
  1467.52,1308.09 1469.4,1210.3 1471.27,87.9763 1473.15,1222.73 1475.03,1195.4 1476.9,1331.58 1478.78,87.9763 1480.66,87.9763 1482.53,87.9763 1484.41,1174.54 
  1486.29,1171.38 1488.16,1256.67 1490.04,1445.13 1491.92,1171.38 1493.79,1321.33 1495.67,87.9763 1497.55,1321.33 1499.42,87.9763 1501.3,1174.54 1503.18,1332.02 
  1505.06,87.9763 1506.93,1204.23 1508.81,87.9763 1510.69,1321.33 1512.56,1171.38 1514.44,1095.12 1516.32,87.9763 1518.19,87.9763 1520.07,1154.42 1521.95,1086.81 
  1523.82,87.9763 1525.7,1332.02 1527.58,1154.42 1529.45,1155.21 1531.33,1308.09 1533.21,1335.6 1535.08,87.9763 1536.96,1212.17 1538.84,87.9763 1540.71,1321.33 
  1542.59,87.9763 1544.47,1118.32 1546.35,87.9763 1548.22,87.9763 1550.1,1296.86 1551.98,1171.38 1553.85,1148.77 1555.73,87.9763 1557.61,1086.81 1559.48,1321.33 
  1561.36,87.9763 1563.24,1308.09 1565.11,1224.89 1566.99,1208.18 1568.87,87.9763 1570.74,1208.18 1572.62,1296.86 1574.5,1296.86 1576.37,1210.3 1578.25,1154.42 
  1580.13,1256.67 1582,87.9763 1583.88,87.9763 1585.76,1335.6 1587.63,1095.12 1589.51,1118.32 1591.39,1308.09 1593.27,1331.58 1595.14,1118.32 1597.02,1321.33 
  1598.9,87.9763 1600.77,87.9763 1602.65,87.9763 1604.53,1170.62 1606.4,1224.89 1608.28,1086.41 1610.16,87.9763 1612.03,87.9763 1613.91,1171.38 1615.79,1170.62 
  1617.66,1195.4 1619.54,1332.02 1621.42,1208.18 1623.29,87.9763 1625.17,87.9763 1627.05,87.9763 1628.92,1308.09 1630.8,1308.09 1632.68,1195.4 1634.56,1210.3 
  1636.43,1224.89 1638.31,87.9763 1640.19,1210.3 1642.06,1321.33 1643.94,87.9763 1645.82,87.9763 1647.69,1210.3 1649.57,1256.67 1651.45,1195.4 1653.32,1208.18 
  1655.2,1193.51 1657.08,87.9763 1658.95,1086.41 1660.83,1171.38 1662.71,1095.12 1664.58,1171.38 1666.46,87.9763 1668.34,1239 1670.21,87.9763 1672.09,87.9763 
  1673.97,87.9763 1675.85,1155.21 1677.72,1171.38 1679.6,1296.86 1681.48,1256.67 1683.35,1208.18 1685.23,87.9763 1687.11,1171.38 1688.98,1086.41 1690.86,87.9763 
  1692.74,1212.17 1694.61,87.9763 1696.49,1321.33 1698.37,87.9763 1700.24,1296.86 1702.12,1171.38 1704,1148.77 1705.87,1154.42 1707.75,1095.12 1709.63,1174.54 
  1711.5,87.9763 1713.38,87.9763 1715.26,87.9763 1717.14,1195.4 1719.01,87.9763 1720.89,1118.32 1722.77,87.9763 1724.64,1256.67 1726.52,1321.33 1728.4,87.9763 
  1730.27,1118.32 1732.15,87.9763 1734.03,87.9763 1735.9,1170.62 1737.78,1208.18 1739.66,87.9763 1741.53,1331.58 1743.41,87.9763 1745.29,1171.38 1747.16,1239 
  1749.04,87.9763 1750.92,87.9763 1752.79,87.9763 1754.67,87.9763 1756.55,87.9763 1758.43,87.9763 1760.3,1256.88 1762.18,1148.77 1764.06,1154.42 1765.93,1224.89 
  1767.81,1171.38 1769.69,87.9763 1771.56,1086.41 1773.44,1210.3 1775.32,1086.81 1777.19,1148.77 1779.07,1086.41 1780.95,87.9763 1782.82,1445.7 1784.7,87.9763 
  1786.58,1208.18 1788.45,1086.81 1790.33,1208.18 1792.21,1321.33 1794.08,87.9763 1795.96,1204.23 1797.84,1118.32 1799.72,1148.77 1801.59,1315.21 1803.47,1154.42 
  1805.35,87.9763 1807.22,1208.18 1809.1,87.9763 1810.98,1308.09 1812.85,1086.81 1814.73,1239 1816.61,1212.17 1818.48,87.9763 1820.36,1335.6 1822.24,1239 
  1824.11,1308.09 1825.99,1195.4 1827.87,87.9763 1829.74,1222.73 1831.62,87.9763 1833.5,1086.41 1835.37,1086.41 1837.25,87.9763 1839.13,87.9763 1841,1321.33 
  1842.88,1171.38 1844.76,1222.73 1846.64,1296.86 1848.51,1224.89 1850.39,1208.18 1852.27,1296.86 1854.14,87.9763 1856.02,1086.41 1857.9,87.9763 1859.77,1331.58 
  1861.65,87.9763 1863.53,1335.6 1865.4,87.9763 1867.28,1174.54 1869.16,1212.17 1871.03,1308.09 1872.91,1256.67 1874.79,1445.7 1876.66,1170.62 1878.54,1195.4 
  1880.42,87.9763 1882.29,1296.86 1884.17,87.9763 1886.05,1239 1887.93,1239 1889.8,87.9763 1891.68,1171.38 1893.56,1171.38 1895.43,1171.38 1897.31,1224.89 
  1899.19,87.9763 1901.06,1256.67 1902.94,1193.51 1904.82,1118.32 1906.69,87.9763 1908.57,1193.51 1910.45,87.9763 1912.32,1170.62 1914.2,1256.67 1916.08,87.9763 
  1917.95,1256.88 1919.83,1086.41 1921.71,1171.38 1923.58,1212.17 1925.46,1210.3 1927.34,1095.12 1929.22,1335.6 1931.09,1118.32 1932.97,1321.33 1934.85,87.9763 
  1936.72,1148.77 1938.6,87.9763 1940.48,87.9763 1942.35,1332.02 1944.23,1222.73 1946.11,1193.51 1947.98,1224.89 1949.86,87.9763 1951.74,1256.88 1953.61,1204.23 
  1955.49,1204.23 1957.37,87.9763 1959.24,1154.42 1961.12,87.9763 1963,1118.32 1964.87,87.9763 1966.75,87.9763 1968.63,1239 1970.51,1155.21 1972.38,1195.4 
  1974.26,87.9763 1976.14,1118.32 1978.01,1193.51 1979.89,87.9763 1981.77,1195.4 1983.64,87.9763 1985.52,1170.62 1987.4,1308.09 1989.27,1095.12 1991.15,1308.09 
  1993.03,87.9763 1994.9,1171.38 1996.78,1193.51 1998.66,1155.21 2000.53,1315.21 2002.41,1118.32 2004.29,1335.6 2006.16,1335.6 2008.04,1331.58 2009.92,87.9763 
  2011.8,1256.88 2013.67,87.9763 2015.55,1308.09 2017.43,1086.41 2019.3,1086.41 2021.18,87.9763 2023.06,87.9763 2024.93,1170.62 2026.81,1256.88 2028.69,1155.21 
  2030.56,87.9763 2032.44,1154.42 2034.32,87.9763 2036.19,87.9763 2038.07,1210.3 2039.95,1222.73 2041.82,1171.38 2043.7,1332.02 2045.58,87.9763 2047.45,1208.18 
  2049.33,1210.3 2051.21,1170.62 2053.08,1256.88 2054.96,87.9763 2056.84,1086.81 2058.72,1118.32 2060.59,1095.12 2062.47,87.9763 2064.35,1335.6 2066.22,1445.7 
  2068.1,1086.81 2069.98,1210.3 2071.85,87.9763 2073.73,87.9763 2075.61,87.9763 2077.48,1170.62 2079.36,1170.62 2081.24,1118.32 2083.11,1445.7 2084.99,87.9763 
  2086.87,87.9763 2088.74,1171.38 2090.62,1308.09 2092.5,87.9763 2094.37,1256.67 2096.25,1170.62 2098.13,87.9763 2100.01,1170.62 2101.88,1321.33 2103.76,87.9763 
  2105.64,1148.77 2107.51,1086.81 2109.39,1332.02 2111.27,1256.88 2113.14,1296.86 2115.02,1154.42 2116.9,1148.77 2118.77,1445.7 2120.65,1208.18 2122.53,87.9763 
  2124.4,1171.38 2126.28,1296.86 2128.16,87.9763 2130.03,87.9763 2131.91,1155.21 2133.79,1296.86 2135.66,1174.54 2137.54,1086.41 2139.42,1256.88 2141.3,1239 
  2143.17,1086.41 2145.05,1296.86 2146.93,1321.33 2148.8,1155.21 2150.68,87.9763 2152.56,1308.09 2154.43,1195.4 2156.31,1195.4 2158.19,87.9763 2160.06,1256.88 
  2161.94,1155.21 2163.82,1148.77 2165.69,87.9763 2167.57,87.9763 2169.45,1208.18 2171.32,1118.32 2173.2,1321.33 2175.08,1256.88 2176.95,87.9763 2178.83,1256.67 
  2180.71,1086.41 2182.59,87.9763 2184.46,87.9763 2186.34,1118.32 2188.22,1256.88 2190.09,87.9763 2191.97,1086.41 2193.85,1086.41 2195.72,1212.17 2197.6,1086.41 
  2199.48,1321.33 2201.35,1296.86 2203.23,1171.38 2205.11,1445.7 2206.98,1335.6 2208.86,1239 2210.74,1331.58 2212.61,1308.09 2214.49,1208.18 2216.37,1086.81 
  2218.24,1095.12 2220.12,87.9763 2222,87.9763 2223.88,1224.89 2225.75,87.9763 2227.63,87.9763 2229.51,87.9763 2231.38,1118.32 2233.26,1315.21 2235.14,1315.21 
  2237.01,1308.09 2238.89,1331.58 2240.77,1174.54 2242.64,1171.38 2244.52,87.9763 2246.4,87.9763 2248.27,87.9763 2250.15,1224.89 2252.03,87.9763 2253.9,1171.38 
  2255.78,1208.18 2257.66,1296.86 2259.53,1204.23 2261.41,1086.81 2263.29,1224.89 2265.16,1174.54 2267.04,1193.51 2268.92,1331.58 2270.8,87.9763 2272.67,1171.38 
  2274.55,1086.41 2276.43,1086.81 2278.3,1095.12 2280.18,1256.88 2282.06,1321.33 2283.93,87.9763 2285.81,1321.33 2287.69,1210.3 2289.56,87.9763 2291.44,87.9763 
  
  "/>
<path clip-path="url(#clip210)" d="
M2011.46 1438.47 L2280.54 1438.47 L2280.54 1282.95 L2011.46 1282.95  Z
  " fill="#ffffff" fill-rule="evenodd" fill-opacity="1"/>
<polyline clip-path="url(#clip210)" style="stroke:#000000; stroke-linecap:round; stroke-linejoin:round; stroke-width:4; stroke-opacity:1; fill:none" points="
  2011.46,1438.47 2280.54,1438.47 2280.54,1282.95 2011.46,1282.95 2011.46,1438.47 
  "/>
<polyline clip-path="url(#clip210)" style="stroke:#009af9; stroke-linecap:round; stroke-linejoin:round; stroke-width:4; stroke-opacity:1; fill:none" points="
  2035.53,1334.79 2179.97,1334.79 
  "/>
<path clip-path="url(#clip210)" d="M2217.88 1354.48 Q2216.07 1359.11 2214.36 1360.52 Q2212.65 1361.94 2209.78 1361.94 L2206.38 1361.94 L2206.38 1358.37 L2208.88 1358.37 Q2210.63 1358.37 2211.61 1357.54 Q2212.58 1356.7 2213.76 1353.6 L2214.52 1351.66 L2204.04 1326.15 L2208.55 1326.15 L2216.65 1346.43 L2224.76 1326.15 L2229.27 1326.15 L2217.88 1354.48 Z" fill="#000000" fill-rule="evenodd" fill-opacity="1" /><path clip-path="url(#clip210)" d="M2236.56 1348.14 L2244.2 1348.14 L2244.2 1321.77 L2235.89 1323.44 L2235.89 1319.18 L2244.15 1317.51 L2248.83 1317.51 L2248.83 1348.14 L2256.47 1348.14 L2256.47 1352.07 L2236.56 1352.07 L2236.56 1348.14 Z" fill="#000000" fill-rule="evenodd" fill-opacity="1" /><polyline clip-path="url(#clip210)" style="stroke:#e26f46; stroke-linecap:round; stroke-linejoin:round; stroke-width:4; stroke-opacity:1; fill:none" points="
  2035.53,1386.63 2179.97,1386.63 
  "/>
<path clip-path="url(#clip210)" d="M2217.88 1406.32 Q2216.07 1410.95 2214.36 1412.36 Q2212.65 1413.78 2209.78 1413.78 L2206.38 1413.78 L2206.38 1410.21 L2208.88 1410.21 Q2210.63 1410.21 2211.61 1409.38 Q2212.58 1408.54 2213.76 1405.44 L2214.52 1403.5 L2204.04 1377.99 L2208.55 1377.99 L2216.65 1398.27 L2224.76 1377.99 L2229.27 1377.99 L2217.88 1406.32 Z" fill="#000000" fill-rule="evenodd" fill-opacity="1" /><path clip-path="url(#clip210)" d="M2239.78 1399.98 L2256.1 1399.98 L2256.1 1403.91 L2234.15 1403.91 L2234.15 1399.98 Q2236.82 1397.22 2241.4 1392.6 Q2246 1387.94 2247.19 1386.6 Q2249.43 1384.08 2250.31 1382.34 Q2251.21 1380.58 2251.21 1378.89 Q2251.21 1376.14 2249.27 1374.4 Q2247.35 1372.66 2244.25 1372.66 Q2242.05 1372.66 2239.59 1373.43 Q2237.16 1374.19 2234.38 1375.74 L2234.38 1371.02 Q2237.21 1369.89 2239.66 1369.31 Q2242.12 1368.73 2244.15 1368.73 Q2249.52 1368.73 2252.72 1371.41 Q2255.91 1374.1 2255.91 1378.59 Q2255.91 1380.72 2255.1 1382.64 Q2254.32 1384.54 2252.21 1387.13 Q2251.63 1387.8 2248.53 1391.02 Q2245.43 1394.22 2239.78 1399.98 Z" fill="#000000" fill-rule="evenodd" fill-opacity="1" /></svg>
