<?xml version="1.0" encoding="UTF-8"?>
<svg width="325pt" height="300pt" version="1.1" viewBox="0 0 325 300" xmlns="http://www.w3.org/2000/svg" xmlns:cc="http://creativecommons.org/ns#" xmlns:dc="http://purl.org/dc/elements/1.1/" xmlns:rdf="http://www.w3.org/1999/02/22-rdf-syntax-ns#">
 <metadata>
  <rdf:RDF>
   <cc:Work rdf:about="">
    <dc:format>image/svg+xml</dc:format>
    <dc:type rdf:resource="http://purl.org/dc/dcmitype/StillImage"/>
    <dc:title/>
   </cc:Work>
  </rdf:RDF>
 </metadata>
 <g>
  <path d="m234.49 75.266c0 39.976-32.232 72.382-71.993 72.382s-71.993-32.406-71.993-72.382c0-39.976 32.232-72.382 71.993-72.382s71.993 32.406 71.993 72.382" fill="#dcf5d7" stroke="#389826" stroke-width="5.7295"/>
  <path d="m150.9 225c0 41.422-33.578 75-75 75-41.422 0-75-33.578-75-75 0-41.422 33.578-75 75-75 41.422 0 75 33.578 75 75" fill="#ca3a33"/>
  <path d="m324.1 225c0 41.422-33.578 75-75 75-41.422 0-75-33.578-75-75 0-41.422 33.578-75 75-75 41.422 0 75 33.578 75 75" fill="#9457b0"/>
 </g>
 <g fill="#389826">
  <path d="m141.4 3.3098s-8.0586 7.577-11.554 8.3745l-4.8234 7.4128 0.85846 2.7416 2.5623 0.26674 0.80652-1.4797 2.9817 1.2714-2.8435 1.6849 2.0565 3.2944-0.67943 0.59431-0.5513 1.0115s-0.4851 0.09698-0.53 0.4942c0.0523 0.38226-1.2055 0.12602-1.2055 0.12602l-0.53697 1.6343 0.27491 0.93233-1.2941 0.60662-0.8833 1.6206 0.76481 0.84266 0.71486-0.99027 0.63728 1.5591 0.78946-0.0096c-0.59434 1.4279-2.8216 3.0879-2.8216 3.0879s-0.59933 0.46344-0.81268 1.491c-0.23794 1.0856 0.805 3.1663 0.805 3.1663l0.79122 2.4115 2.5438-0.79758 0.62341-1.1438 1.3025-1.285 0.75668 0.05163 1.4754-3.0421-0.62657-3.4873 0.81675-2.6075 2.2229-1.8487s0.92008-2.8089 1.0112-2.327c0.18233 0.4467 3.2908 0.04882 3.2908 0.04882l3.1411 0.31048 2.0352-0.1986 1.7319 0.6792 0.26886-0.80814 1.632-2.3453-1.8266 0.13073-1.8197 0.9316-3.4151-0.45687-2.2203-0.24842 0.17714-1.305 2.0963 0.0063 2.0298-0.19511 2.5377-1.7632 1.612 0.87863 1.2788-0.08959 2.1516-1.8876 0.0607-2.6764-0.67675-1.159-1.6908 0.22229 1.2124-2.2243 2.9452-0.73988 3.0993-2.1681 1.5053 1.0852 2.8048-0.82401 0.34004 1.147-3.6353 2.8195-3.3403 2.1117-2.632 5.6295 2.4342 1.1551 4.1002-2.2229 3.5619-2.8525 3.3746-2.007 2.0687 1.4743 1.5028 2.2171-2.1004 1.1253-6.1702 1.6956-0.34035 0.96187-4.3568 1.8974-0.808 1.4824 1.5577 1.464-0.68767 0.9307-1.2764-0.52408-7.7183 3.5677-0.80345-2.1827 0.43827-2.1162-2.1377 0.2288-0.55425 1.0169-3.1339 1.5987-0.68119 2.6855-4.252 1.7115-0.93214 2.0122-1.4787 2.0897-2.123 1.7954-1.2702 2.9794 0.4742 4.0989-1.0749 3.08 0.14796 1.8272-0.41041 1.8749 0.66016 1.5107-1.5238 2.4745 1.0185 4.221 1.3275 1.0826 2.0461 1.893 1.3573 4.2323 1.1578 1.0674 2.0916 1.14 3.2861 0.38948 3.4249 0.12077 7.0075-0.02513 1.3982-0.80407 1.3532-2.1453 3.7569-1.6199 3.0176-4.7294 1.5541-0.11 0.44925-1.1456 3.2609-0.68613 0.64354-1.8298 3.9929 1.4793 1.1083 2.295 0.51643 2.2623 4.0448 1.411 6.2458 2.8004s1.645 1.5005 1.828 1.9545c0.0879 0.48777 0.28732 3.3059 0.28732 3.3059l7.2076 7.7671 4.9504 1.5063 3.5993 2.7161 1.3641 3.0991 2.2148 1.3858 1.224 1.2768 1.5405-1.5143 0.16094-2.4144 1.549-2.8421 3.632-3.4399 0.0695-3.9841-0.21788-5.359 1.0102-2.5026-3.3905-2.2837-0.71246-1.8865 1.1223-2.8661-0.54694-2.8435 0.88035-1.6152-2.0365-8.6139s-1.4368-1.3904-2.0319-1.7148c-0.54592-0.29755-2.7654-2.3044-2.7654-2.3044l-2.0996-4.0149 1.0756-2.2948 0.25088-2.9985-0.87633-6.4301-2.2451-3.7544-0.93123-1.4722-1.492 1.2813 0.45806 1.226-2.9171 1.1945 0.53432 0.46284-3.0418-1.2965s-0.33451-1.1475-1.6627-0.48045c-1.2943 0.61351-3.9264 0.13304-3.9264 0.13304l-2.4878-0.39367-3.4518-1.5276-1.1342-0.97195-2.3666-1.1148-4.507-2.6316 1.359-1.5294 4.4974 3.1412 2.7653 0.19937 3.6449 1.9866 2.6328 1.0883 3.753 0.65455 4.6449-0.79685-0.26143-1.6255 0.98987-1.8161-3.3092-9.4897-1.7708-1.4009-2.3312 0.29904-3.3576 0.53266-0.29436 0.54006 0.20739 1.6827-2.2269-0.85299-2.1284 0.04825s-0.0132 1.1332-1.4211 0.19064c-1.4697-0.97968-2.2391-1.6603-2.2391-1.6603l-0.0185-1.7402 3.2454 0.4534 2.42 0.52889 2.2352-0.88375 2.6118-0.9321 3.9891-1.2292 3.6131 0.73935 3.3631 1.0541 1.3451-1.1827 4.5804 2.657 7.2106 4.555 1.48-0.94454c4e-3 -0.0024-25.475-28.407-72.222-16.929z"/>
  <polygon transform="matrix(.24611 -.45155 .45155 .24611 53.916 106.85)" points="192.53 53.013 203.46 52.519 202.12 48.124 200.78 44.969 199.94 40.22 197.24 39.384 197.75 45.454 193.85 49.842"/>
  <path d="m216.37 68.246-0.68475-2.9292-1.2621-1.4745-0.3799-2.5697 1.5961-3.4624-0.74571-4.2498 1.9263 0.26334 0.79763 2.7049-0.56692 1.557 1.308 3.7585 2.5408 7.0942-1.761 4.1626-1.7574-0.95788-0.7117-1.9535c-1.038-0.07609-0.81217 0.04696-1.038-0.07609-0.21539-0.1174 0.22578 0.12306 0.22578 0.12306s0.95394-1.7502 0.51277-1.9907z"/>
  <path d="m167.69 150.11-9.2333-3.467-1.7865 0.0185-2.3112-0.46957-2.6017-1.917-0.11934-2.129-3.5047-1.6906-0.42579-3.0153-2.19-1.1937-3.9538-8.8506 1.6754-1.6446-0.52985-1.363-7.0332-10.79 1.0291-3.314-0.72298-1.9403-1.4874-0.54421-4.3956-0.0419-3.0053 1.7098-3.7867-2.0639-4.0175 2.6417-4.8564-2.849-1.1363-1.6935-1.8254 0.0793-2.4197 1.537-2.4829-0.6616-3.5929-2.4497-4.5058 0.69222-0.48434 3.775-1.4061 2.5797s9.3804 14.954 18.25 21.853c8.9078 6.9267 0.94074 0.22868 0.94074 0.22868l6.1361 1.5639 5.7068 1.8272 4.4746 2.648 4.6454-0.0327 3.0325 2.9361 6.0421 3.5825 4.0635 0.6416 4.3745 1.3927 3.9645 1.3778 2.6312-0.13907"/>
  <path d="m95.497 44.152 1.2191 1.9477-1.4022 3.0873 2.4268 3.6713s1.6597 4.5435 0.85038 3.5161c-0.77535-0.91575-1.3928-0.17288-2.002-0.50489-0.59831-0.3261-2.3115 2.8171-2.3115 2.8171l0.95474 2.5703-3.1355 7.0348s-0.47794 2.333-0.35361 3.1569c0.04894 0.81502 0.04894 0.81502 0.04894 0.81502l-0.45137 0.82815-0.37323 1.0781 0.45442 1.5239 0.49207 1.0583 0.78327 0.91948 0.41197 1.2149-2.4708 3.0771-1.9446 3.5677c7.39e-4 -0.0014-3.2296-24.954 6.803-41.379z"/>
 </g>
</svg>
